<svg xmlns="http://www.w3.org/2000/svg" data-v-fde0c5aa="" viewBox="10 120 800 800" class="iconLeft"><!----><defs data-v-fde0c5aa=""><!----></defs><defs data-v-fde0c5aa=""><!----></defs><g data-v-fde0c5aa="" id="00fa1e8c-0230-49a7-97b4-d6685972e6da" fill="#FFFFFF" transform="matrix(1.883619803392082,0,0,1.883619803392082,104.9592637460134,133.56541739504007)"><path d="M1.37 13.65L7.11 13.65L7.11 12.57L2.59 12.57L2.59 9.52L6.29 9.52L6.29 8.44L2.59 8.44L2.59 5.47L7.03 5.47L7.03 4.40L1.37 4.40ZM13.29 13.65L14.24 13.65L14.24 3.60L13.12 3.60L13.12 7.76C12.73 7.32 12.07 7.03 11.23 7.03C9.35 7.03 8.41 8.50 8.41 10.54C8.41 12.10 8.99 13.85 10.99 13.85C12.10 13.85 12.82 13.34 13.20 12.63ZM11.23 12.92C9.81 12.92 9.62 11.48 9.62 10.47C9.62 8.85 10.12 7.95 11.33 7.95C12.88 7.95 13.12 9.38 13.12 10.26C13.12 11.68 12.52 12.92 11.23 12.92ZM20.87 13.65L21.83 13.65L21.83 3.60L20.71 3.60L20.71 7.76C20.31 7.32 19.66 7.03 18.82 7.03C16.94 7.03 16.00 8.50 16.00 10.54C16.00 12.10 16.58 13.85 18.58 13.85C19.68 13.85 20.41 13.34 20.79 12.63ZM18.82 12.92C17.40 12.92 17.21 11.48 17.21 10.47C17.21 8.85 17.71 7.95 18.91 7.95C20.47 7.95 20.71 9.38 20.71 10.26C20.71 11.68 20.10 12.92 18.82 12.92ZM23.77 5.00C23.77 5.43 24.09 5.75 24.53 5.75C24.95 5.75 25.28 5.43 25.28 5.00C25.28 4.58 24.95 4.24 24.53 4.24C24.09 4.24 23.77 4.58 23.77 5.00ZM23.98 13.65L25.10 13.65L25.10 7.22L23.98 7.22ZM32.44 10.61L32.44 9.91C32.44 7.95 31.53 7.03 29.83 7.03C27.59 7.03 26.87 8.75 26.87 10.47C26.87 12.78 27.96 13.85 29.86 13.85C31.28 13.85 32.12 13.16 32.44 12.01L31.46 11.82C31.28 12.40 30.73 12.92 29.89 12.92C28.42 12.92 28.08 11.80 28.07 10.61ZM29.81 7.95C30.81 7.95 31.28 8.61 31.28 9.46L31.28 9.72L28.11 9.72C28.28 8.50 28.91 7.95 29.81 7.95ZM37.18 11.12C37.09 12.42 38.15 13.85 40.33 13.85C42.49 13.85 43.61 12.67 43.61 11.23C43.61 8.01 38.68 9.02 38.68 6.52C38.68 5.70 39.30 5.21 40.33 5.21C41.62 5.21 42.28 5.80 42.32 6.93L43.50 6.68C43.57 5.22 42.31 4.20 40.39 4.20C38.56 4.20 37.44 5.17 37.44 6.66C37.44 10.18 42.36 9.09 42.36 11.42C42.36 12.32 41.54 12.84 40.36 12.84C39.23 12.84 38.37 12.25 38.36 10.86ZM50.64 13.75L50.86 12.77C50.01 12.92 50.06 12.42 50.06 11.91L50.06 9.37C50.06 7.74 49.39 7.03 47.74 7.03C45.88 7.03 45.02 7.81 45.18 9.04L46.28 9.24C46.21 8.29 46.79 7.95 47.66 7.95C48.65 7.95 48.94 8.41 48.94 9.52L48.94 9.88C46.52 9.90 44.95 10.64 44.95 12.11C44.95 13.29 45.95 13.85 46.98 13.85C47.99 13.85 48.75 13.29 49.06 12.71C49.10 13.30 49.42 13.90 50.64 13.75ZM48.94 11.42C48.89 12.25 48.05 12.92 47.19 12.92C46.54 12.92 46.16 12.57 46.16 12.03C46.16 11.20 46.97 10.75 48.94 10.74ZM52.30 13.65L53.42 13.65L53.42 3.60L52.30 3.60ZM59.53 11.82C59.39 12.43 58.86 12.92 57.99 12.92C57.09 12.92 56.39 12.24 56.39 10.44C56.39 9.17 56.77 7.95 58.06 7.95C58.86 7.95 59.43 8.22 59.36 9.24L60.48 9.04C60.62 7.73 59.57 7.03 58.06 7.03C56.55 7.03 55.19 7.87 55.19 10.42C55.19 12.57 56.17 13.85 57.97 13.85C59.43 13.85 60.20 13.13 60.52 12.01ZM67.37 10.61L67.37 9.91C67.37 7.95 66.46 7.03 64.76 7.03C62.52 7.03 61.80 8.75 61.80 10.47C61.80 12.78 62.89 13.85 64.79 13.85C66.21 13.85 67.05 13.16 67.37 12.01L66.39 11.82C66.21 12.40 65.66 12.92 64.82 12.92C63.35 12.92 63.01 11.80 63 10.61ZM64.74 7.95C65.74 7.95 66.21 8.61 66.21 9.46L66.21 9.72L63.04 9.72C63.21 8.50 63.84 7.95 64.74 7.95ZM73.63 13.65L74.58 13.65L74.58 3.60L73.46 3.60L73.46 7.76C73.07 7.32 72.41 7.03 71.57 7.03C69.69 7.03 68.75 8.50 68.75 10.54C68.75 12.10 69.33 13.85 71.33 13.85C72.44 13.85 73.16 13.34 73.54 12.63ZM71.57 12.92C70.15 12.92 69.96 11.48 69.96 10.47C69.96 8.85 70.46 7.95 71.67 7.95C73.22 7.95 73.46 9.38 73.46 10.26C73.46 11.68 72.86 12.92 71.57 12.92ZM79.34 13.85C81.42 13.85 82.31 12.32 82.31 10.33C82.31 8.25 81.31 7.03 79.34 7.03C77.29 7.03 76.34 8.44 76.34 10.33C76.34 12.47 77.22 13.85 79.34 13.85ZM79.34 12.92C78.18 12.92 77.55 12.08 77.55 10.47C77.55 8.88 78.18 7.95 79.34 7.95C80.49 7.95 81.10 8.85 81.10 10.47C81.10 11.96 80.49 12.92 79.34 12.92Z"/></g><defs data-v-fde0c5aa=""><!----></defs><g data-v-fde0c5aa="" id="853f64a1-8138-48d4-a84f-c9ca01b7ff82" stroke="none" fill="#88DF95" transform="matrix(1.4682952702816547,0,0,1.4682952702816547,-6.144118326905762,76.58523648591728)"><path d="M41.29 40.138l-9.863 9.861 9.863 9.862 2.557-2.557-7.305-7.306 7.305-7.303-2.557-2.557zm17.419 0l-2.557 2.558 7.305 7.303-7.305 7.306 2.557 2.557L68.572 50l-9.863-9.862z"/></g><!----></svg>